<svg width="67" height="69" viewBox="0 0 67 69" fill="none" xmlns="http://www.w3.org/2000/svg">
<g filter="url(#filter0_d_4_36516)">
<path d="M35 42C43.8366 42 51 34.8366 51 26C51 17.1634 43.8366 10 35 10C26.1634 10 19 17.1634 19 26C19 34.8366 26.1634 42 35 42Z" fill="white"/>
</g>
<path d="M38.4916 19.1428C37.6745 19.143 36.8722 19.3606 36.167 19.7733C35.4618 20.1861 34.8792 20.779 34.479 21.4914C34.0787 20.7789 33.4959 20.1858 32.7905 19.773C32.0851 19.3603 31.2826 19.1428 30.4653 19.1428C29.2136 19.2104 28.0362 19.758 27.1779 20.6716C26.3196 21.5852 25.8466 22.7945 25.8573 24.048C25.8573 30.44 34.479 34.8994 34.479 34.8994C34.479 34.8994 43.1007 30.4422 43.1007 24.048C43.1113 22.7943 42.6382 21.5848 41.7797 20.6712C40.9212 19.7576 39.7435 19.2101 38.4916 19.1428V19.1428Z" fill="#FE724C"/>
<defs>
<filter id="filter0_d_4_36516" x="0.785713" y="0.285713" width="68.4286" height="68.4286" filterUnits="userSpaceOnUse" color-interpolation-filters="sRGB">
<feFlood flood-opacity="0" result="BackgroundImageFix"/>
<feColorMatrix in="SourceAlpha" type="matrix" values="0 0 0 0 0 0 0 0 0 0 0 0 0 0 0 0 0 0 127 0" result="hardAlpha"/>
<feOffset dy="8.5"/>
<feGaussianBlur stdDeviation="9.10714"/>
<feColorMatrix type="matrix" values="0 0 0 0 0.996078 0 0 0 0 0.447059 0 0 0 0 0.298039 0 0 0 0.4 0"/>
<feBlend mode="normal" in2="BackgroundImageFix" result="effect1_dropShadow_4_36516"/>
<feBlend mode="normal" in="SourceGraphic" in2="effect1_dropShadow_4_36516" result="shape"/>
</filter>
</defs>
</svg>
