<svg width="67" height="69" viewBox="0 0 67 69" fill="none" xmlns="http://www.w3.org/2000/svg">
<g filter="url(#filter0_d_3_36430)">
<path d="M35 42C43.8366 42 51 34.8366 51 26C51 17.1634 43.8366 10 35 10C26.1634 10 19 17.1634 19 26C19 34.8366 26.1634 42 35 42Z" fill="white"/>
</g>
<path d="M34.6019 34.2611C34.557 34.2867 34.516 34.3098 34.479 34.3304C34.4421 34.3098 34.4011 34.2867 34.3562 34.2611C34.127 34.1304 33.7976 33.9356 33.4016 33.6819C32.6085 33.1737 31.5532 32.432 30.5001 31.4969C28.3718 29.6071 26.3573 27.0211 26.3573 24.0481L26.3573 24.0438C26.3477 22.919 26.7722 21.8339 27.5423 21.014C28.3094 20.1975 29.3606 19.7068 30.4788 19.643C31.2026 19.6453 31.9131 19.839 32.538 20.2047C33.1668 20.5726 33.6862 21.1013 34.0431 21.7364L34.479 22.5123L34.9149 21.7364C35.2717 21.1014 35.791 20.5729 36.4196 20.205C37.0443 19.8393 37.7545 19.6455 38.4782 19.643C39.5965 19.7066 40.648 20.1971 41.4153 21.0137C42.1857 21.8336 42.6103 22.9189 42.6007 24.0438H42.6007V24.0481C42.6007 27.0223 40.5862 29.6083 38.4579 31.4977C37.4049 32.4326 36.3495 33.1741 35.5564 33.6821C35.1604 33.9358 34.8311 34.1305 34.6019 34.2611Z" stroke="#FE724C"/>
<defs>
<filter id="filter0_d_3_36430" x="0.785713" y="0.285713" width="68.4286" height="68.4286" filterUnits="userSpaceOnUse" color-interpolation-filters="sRGB">
<feFlood flood-opacity="0" result="BackgroundImageFix"/>
<feColorMatrix in="SourceAlpha" type="matrix" values="0 0 0 0 0 0 0 0 0 0 0 0 0 0 0 0 0 0 127 0" result="hardAlpha"/>
<feOffset dy="8.5"/>
<feGaussianBlur stdDeviation="9.10714"/>
<feColorMatrix type="matrix" values="0 0 0 0 0.996078 0 0 0 0 0.447059 0 0 0 0 0.298039 0 0 0 0.4 0"/>
<feBlend mode="normal" in2="BackgroundImageFix" result="effect1_dropShadow_3_36430"/>
<feBlend mode="normal" in="SourceGraphic" in2="effect1_dropShadow_3_36430" result="shape"/>
</filter>
</defs>
</svg>
